<?xml version="1.0" encoding="UTF-8" standalone="no"?>
<!-- Created by Flowgorithm 2.19.0 (http://flowgorithm.org) -->

<svg xmlns:svg="http://www.w3.org/2000/svg" xmlns="http://www.w3.org/2000/svg" version="1.1" width="8339" height="9176">
	<rect x="0" y="0" width="8339" height="9176" fill="#FFFFFF"/>
	<g>
		<polyline fill="none" stroke="#000000" stroke-width="8" stroke-dasharray="none" points="3658,248 3658,323"/>
		<polygon fill="#000000" stroke="none" points="3658,341 3675,310 3640,310"/>
		<polyline fill="none" stroke="#000000" stroke-width="8" stroke-dasharray="none" points="3658,8835 3658,8910"/>
		<polygon fill="#000000" stroke="none" points="3658,8928 3675,8897 3640,8897"/>
		<g>
			<path fill="#E0E0E0" stroke="#000000" stroke-width="4" stroke-dasharray="none" d="M 3534,124 A 62,62 0 0,0 3534,248 L 3782,248 A 62,62 0 0,0 3782,124 Z"/>
			<polyline fill="none" stroke="#000000" stroke-width="4" stroke-dasharray="none" points="3534,124 3534,248"/>
			<polyline fill="none" stroke="#000000" stroke-width="4" stroke-dasharray="none" points="3782,124 3782,248"/>
			<text x="3658" y="142" fill="#000000" font-family="Arial" font-size="32pt" text-anchor="middle" direction="ltr">
				<tspan x="3658" dy="62" unicode-bidi="embed">Main</tspan>
			</text>
		</g>
		<g>
			<path fill="#E0E0E0" stroke="#000000" stroke-width="4" stroke-dasharray="none" d="M 3534,8928 A 62,62 0 0,0 3534,9052 L 3782,9052 A 62,62 0 0,0 3782,8928 Z"/>
			<text x="3658" y="8946" fill="#000000" font-family="Arial" font-size="32pt" text-anchor="middle" direction="ltr">
				<tspan x="3658" dy="62" unicode-bidi="embed">End</tspan>
			</text>
		</g>
		<g>
			<polyline fill="none" stroke="#000000" stroke-width="8" stroke-dasharray="none" points="3658,589 3658,664"/>
			<polygon fill="#000000" stroke="none" points="3658,682 3675,651 3640,651"/>
			<polyline fill="none" stroke="#000000" stroke-width="8" stroke-dasharray="none" points="3658,868 3658,943"/>
			<polygon fill="#000000" stroke="none" points="3658,961 3675,930 3640,930"/>
			<polyline fill="none" stroke="#000000" stroke-width="8" stroke-dasharray="none" points="3658,1085 3658,1160"/>
			<polygon fill="#000000" stroke="none" points="3658,1178 3675,1147 3640,1147"/>
			<polyline fill="none" stroke="#000000" stroke-width="8" stroke-dasharray="none" points="3658,1302 3658,1377"/>
			<polygon fill="#000000" stroke="none" points="3658,1395 3675,1364 3640,1364"/>
			<polyline fill="none" stroke="#000000" stroke-width="8" stroke-dasharray="none" points="3658,1519 3658,1594"/>
			<polygon fill="#000000" stroke="none" points="3658,1612 3675,1581 3640,1581"/>
			<polyline fill="none" stroke="#000000" stroke-width="8" stroke-dasharray="none" points="3658,1736 3658,1811"/>
			<polygon fill="#000000" stroke="none" points="3658,1829 3675,1798 3640,1798"/>
			<g>
				<path fill="#E0E0E0" stroke="#000000" stroke-width="4" stroke-dasharray="none" d="M 3224,341 L 3224,589 L 3968,589 L 4092,465 L 3968,341 Z"/>
				<text x="3596" y="359" fill="#000000" font-family="Arial" font-size="32pt" text-anchor="middle" direction="ltr">
					<tspan x="3596" dy="62" unicode-bidi="embed">&quot;Dispatcher Receives Call/</tspan>
					<tspan x="3596" dy="62" unicode-bidi="embed">Email and Request for</tspan>
					<tspan x="3596" dy="62" unicode-bidi="embed"> Service&quot;</tspan>
				</text>
			</g>
			<g>
				<path fill="#E0E0E0" stroke="#000000" stroke-width="4" stroke-dasharray="none" d="M 3255,682 L 3255,868 L 3968,868 L 4061,775 L 3968,682 Z"/>
				<text x="3611" y="700" fill="#000000" font-family="Arial" font-size="32pt" text-anchor="middle" direction="ltr">
					<tspan x="3611" dy="62" unicode-bidi="embed">&quot;Need to Look up Status of</tspan>
					<tspan x="3611" dy="62" unicode-bidi="embed"> Caller in Database&quot;</tspan>
				</text>
			</g>
			<g>
				<path fill="#E0E0E0" stroke="#000000" stroke-width="4" stroke-dasharray="none" d="M 3410,961 L 3410,1085 L 3906,1085 L 3906,1023 L 3844,961 Z"/>
				<polyline fill="none" stroke="#000000" stroke-width="4" stroke-dasharray="none" points="3844,961 3844,1023 3906,1023"/>
				<text x="3627" y="979" fill="#000000" font-family="Arial" font-size="32pt" text-anchor="middle" direction="ltr">
					<tspan x="3627" dy="62" unicode-bidi="embed">Integer Caller</tspan>
				</text>
			</g>
			<g>
				<path fill="#E0E0E0" stroke="#000000" stroke-width="4" stroke-dasharray="none" d="M 3472,1178 L 3472,1302 L 3844,1302 L 3844,1178 Z"/>
				<text x="3658" y="1196" fill="#000000" font-family="Arial" font-size="32pt" text-anchor="middle" direction="ltr">
					<tspan x="3658" dy="62" unicode-bidi="embed">Caller = 1</tspan>
				</text>
			</g>
			<g>
				<path fill="#E0E0E0" stroke="#000000" stroke-width="4" stroke-dasharray="none" d="M 3286,1395 L 3286,1519 L 4030,1519 L 4030,1457 L 3968,1395 Z"/>
				<polyline fill="none" stroke="#000000" stroke-width="4" stroke-dasharray="none" points="3968,1395 3968,1457 4030,1457"/>
				<text x="3627" y="1413" fill="#000000" font-family="Arial" font-size="32pt" text-anchor="middle" direction="ltr">
					<tspan x="3627" dy="62" unicode-bidi="embed">Integer CurrentCustomer</tspan>
				</text>
			</g>
			<g>
				<path fill="#E0E0E0" stroke="#000000" stroke-width="4" stroke-dasharray="none" d="M 3379,1612 L 3379,1736 L 3937,1736 L 3875,1674 L 3937,1612 Z"/>
				<text x="3627" y="1630" fill="#000000" font-family="Arial" font-size="32pt" text-anchor="middle" direction="ltr">
					<tspan x="3627" dy="62" unicode-bidi="embed">CurrentCustomer</tspan>
				</text>
			</g>
			<g>
				<polyline fill="none" stroke="#000000" stroke-width="8" stroke-dasharray="none" points="4030,2046 7254,2046 7254,2338"/>
				<polygon fill="#000000" stroke="none" points="7254,2356 7271,2325 7236,2325"/>
				<polyline fill="none" stroke="#000000" stroke-width="8" stroke-dasharray="none" points="7254,8680 7254,8804 3706,8804"/>
				<polygon fill="#000000" stroke="none" points="3689,8804 3719,8821 3719,8786"/>
				<polyline fill="none" stroke="#000000" stroke-width="8" stroke-dasharray="none" points="3286,2046 1860,2046 1860,2338"/>
				<polygon fill="#000000" stroke="none" points="1860,2356 1877,2325 1842,2325"/>
				<polyline fill="none" stroke="#000000" stroke-width="8" stroke-dasharray="none" points="1860,7626 1860,8804 3609,8804"/>
				<polygon fill="#000000" stroke="none" points="3627,8804 3596,8786 3596,8821"/>
				<g>
					<path fill="#E0E0E0" stroke="#000000" stroke-width="4" stroke-dasharray="none" d="M 3658,1829 L 3255,2046 L 3658,2263 L 4061,2046 Z"/>
					<text x="3658" y="2002" fill="#000000" font-family="Arial" font-size="32pt" text-anchor="middle" direction="ltr">
						<tspan x="3658" dy="62" unicode-bidi="embed">Caller = CurrentCustomer</tspan>
					</text>
				</g>
				<g>
					<polyline fill="none" stroke="#000000" stroke-width="8" stroke-dasharray="none" points="7254,2542 7254,2617"/>
					<polygon fill="#000000" stroke="none" points="7254,2635 7271,2604 7236,2604"/>
					<polyline fill="none" stroke="#000000" stroke-width="8" stroke-dasharray="none" points="7254,2759 7254,2834"/>
					<polygon fill="#000000" stroke="none" points="7254,2852 7271,2821 7236,2821"/>
					<polyline fill="none" stroke="#000000" stroke-width="8" stroke-dasharray="none" points="7254,2976 7254,3051"/>
					<polygon fill="#000000" stroke="none" points="7254,3069 7271,3038 7236,3038"/>
					<g>
						<path fill="#E0E0E0" stroke="#000000" stroke-width="4" stroke-dasharray="none" d="M 6851,2356 L 6851,2542 L 7564,2542 L 7657,2449 L 7564,2356 Z"/>
						<text x="7207" y="2374" fill="#000000" font-family="Arial" font-size="32pt" text-anchor="middle" direction="ltr">
							<tspan x="7207" dy="62" unicode-bidi="embed">&quot;Does Customer Have an</tspan>
							<tspan x="7207" dy="62" unicode-bidi="embed"> Outstanding Balance?&quot;</tspan>
						</text>
					</g>
					<g>
						<path fill="#E0E0E0" stroke="#000000" stroke-width="4" stroke-dasharray="none" d="M 6882,2635 L 6882,2759 L 7626,2759 L 7626,2697 L 7564,2635 Z"/>
						<polyline fill="none" stroke="#000000" stroke-width="4" stroke-dasharray="none" points="7564,2635 7564,2697 7626,2697"/>
						<text x="7223" y="2653" fill="#000000" font-family="Arial" font-size="32pt" text-anchor="middle" direction="ltr">
							<tspan x="7223" dy="62" unicode-bidi="embed">String BalanceDueStatus</tspan>
						</text>
					</g>
					<g>
						<path fill="#E0E0E0" stroke="#000000" stroke-width="4" stroke-dasharray="none" d="M 6944,2852 L 6944,2976 L 7564,2976 L 7502,2914 L 7564,2852 Z"/>
						<text x="7223" y="2870" fill="#000000" font-family="Arial" font-size="32pt" text-anchor="middle" direction="ltr">
							<tspan x="7223" dy="62" unicode-bidi="embed">BalanceDueStatus</tspan>
						</text>
					</g>
					<g>
						<polyline fill="none" stroke="#000000" stroke-width="8" stroke-dasharray="none" points="7626,3286 7812,3286 7812,3578"/>
						<polygon fill="#000000" stroke="none" points="7812,3596 7829,3565 7794,3565"/>
						<polyline fill="none" stroke="#000000" stroke-width="8" stroke-dasharray="none" points="7812,3844 7812,8649 7302,8649"/>
						<polygon fill="#000000" stroke="none" points="7285,8649 7315,8666 7315,8631"/>
						<polyline fill="none" stroke="#000000" stroke-width="8" stroke-dasharray="none" points="6882,3286 5456,3286 5456,3578"/>
						<polygon fill="#000000" stroke="none" points="5456,3596 5473,3565 5438,3565"/>
						<polyline fill="none" stroke="#000000" stroke-width="8" stroke-dasharray="none" points="5456,8525 5456,8649 7205,8649"/>
						<polygon fill="#000000" stroke="none" points="7223,8649 7192,8631 7192,8666"/>
						<g>
							<path fill="#E0E0E0" stroke="#000000" stroke-width="4" stroke-dasharray="none" d="M 7254,3069 L 6851,3286 L 7254,3503 L 7657,3286 Z"/>
							<text x="7254" y="3242" fill="#000000" font-family="Arial" font-size="32pt" text-anchor="middle" direction="ltr">
								<tspan x="7254" dy="62" unicode-bidi="embed">BalanceDueStatus=&quot;Yes&quot;</tspan>
							</text>
						</g>
						<g>
							<path fill="#E0E0E0" stroke="#000000" stroke-width="4" stroke-dasharray="none" d="M 7409,3596 L 7409,3844 L 8091,3844 L 8215,3720 L 8091,3596 Z"/>
							<text x="7750" y="3614" fill="#000000" font-family="Arial" font-size="32pt" text-anchor="middle" direction="ltr">
								<tspan x="7750" dy="62" unicode-bidi="embed">&quot;Request Payment/and or</tspan>
								<tspan x="7750" dy="62" unicode-bidi="embed"> resolve due balance for</tspan>
								<tspan x="7750" dy="62" unicode-bidi="embed"> further service&quot;</tspan>
							</text>
						</g>
						<g>
							<polyline fill="none" stroke="#000000" stroke-width="8" stroke-dasharray="none" points="5456,3844 5456,3919"/>
							<polygon fill="#000000" stroke="none" points="5456,3937 5473,3906 5438,3906"/>
							<polyline fill="none" stroke="#000000" stroke-width="8" stroke-dasharray="none" points="5456,4185 5456,4260"/>
							<polygon fill="#000000" stroke="none" points="5456,4278 5473,4247 5438,4247"/>
							<polyline fill="none" stroke="#000000" stroke-width="8" stroke-dasharray="none" points="5456,4836 5456,4911"/>
							<polygon fill="#000000" stroke="none" points="5456,4929 5473,4898 5438,4898"/>
							<polyline fill="none" stroke="#000000" stroke-width="8" stroke-dasharray="none" points="5456,5053 5456,5128"/>
							<polygon fill="#000000" stroke="none" points="5456,5146 5473,5115 5438,5115"/>
							<polyline fill="none" stroke="#000000" stroke-width="8" stroke-dasharray="none" points="5456,5270 5456,5345"/>
							<polygon fill="#000000" stroke="none" points="5456,5363 5473,5332 5438,5332"/>
							<g>
								<path fill="#E0E0E0" stroke="#000000" stroke-width="4" stroke-dasharray="none" d="M 5022,3596 L 5022,3844 L 5766,3844 L 5890,3720 L 5766,3596 Z"/>
								<text x="5394" y="3614" fill="#000000" font-family="Arial" font-size="32pt" text-anchor="middle" direction="ltr">
									<tspan x="5394" dy="62" unicode-bidi="embed">&quot;Get information regarding</tspan>
									<tspan x="5394" dy="62" unicode-bidi="embed"> requested Service and start</tspan>
									<tspan x="5394" dy="62" unicode-bidi="embed"> a Helpdesk ticket&quot;</tspan>
								</text>
							</g>
							<g>
								<path fill="#E0E0E0" stroke="#000000" stroke-width="4" stroke-dasharray="none" d="M 5022,3937 L 5022,4185 L 5766,4185 L 5890,4061 L 5766,3937 Z"/>
								<text x="5394" y="3955" fill="#000000" font-family="Arial" font-size="32pt" text-anchor="middle" direction="ltr">
									<tspan x="5394" dy="62" unicode-bidi="embed">&quot;Contact Available Agent. </tspan>
									<tspan x="5394" dy="62" unicode-bidi="embed"> Available Agent will contact</tspan>
									<tspan x="5394" dy="62" unicode-bidi="embed"> Customer&quot;</tspan>
								</text>
							</g>
							<g>
								<path fill="#E0E0E0" stroke="#000000" stroke-width="4" stroke-dasharray="none" d="M 4929,4278 L 4929,4836 L 5704,4836 L 5983,4557 L 5704,4278 Z"/>
								<text x="5316" y="4296" fill="#000000" font-family="Arial" font-size="32pt" text-anchor="middle" direction="ltr">
									<tspan x="5316" dy="62" unicode-bidi="embed">&quot;Agent Contacts Customer</tspan>
									<tspan x="5316" dy="62" unicode-bidi="embed"> and determines if the</tspan>
									<tspan x="5316" dy="62" unicode-bidi="embed"> problem/service can be</tspan>
									<tspan x="5316" dy="62" unicode-bidi="embed"> completed on the phone or</tspan>
									<tspan x="5316" dy="62" unicode-bidi="embed"> will require an on-premise</tspan>
									<tspan x="5316" dy="62" unicode-bidi="embed"> visit or might even</tspan>
									<tspan x="5316" dy="62" unicode-bidi="embed"> determine requires a</tspan>
									<tspan x="5316" dy="62" unicode-bidi="embed"> referred service.&quot;</tspan>
								</text>
							</g>
							<g>
								<path fill="#E0E0E0" stroke="#000000" stroke-width="4" stroke-dasharray="none" d="M 5084,4929 L 5084,5053 L 5828,5053 L 5828,4991 L 5766,4929 Z"/>
								<polyline fill="none" stroke="#000000" stroke-width="4" stroke-dasharray="none" points="5766,4929 5766,4991 5828,4991"/>
								<text x="5425" y="4947" fill="#000000" font-family="Arial" font-size="32pt" text-anchor="middle" direction="ltr">
									<tspan x="5425" dy="62" unicode-bidi="embed">Integer PhoneResolution</tspan>
								</text>
							</g>
							<g>
								<path fill="#E0E0E0" stroke="#000000" stroke-width="4" stroke-dasharray="none" d="M 5177,5146 L 5177,5270 L 5735,5270 L 5673,5208 L 5735,5146 Z"/>
								<text x="5425" y="5164" fill="#000000" font-family="Arial" font-size="32pt" text-anchor="middle" direction="ltr">
									<tspan x="5425" dy="62" unicode-bidi="embed">PhoneResolution</tspan>
								</text>
							</g>
							<g>
								<polyline fill="none" stroke="#000000" stroke-width="8" stroke-dasharray="none" points="5828,5580 6138,5580 6138,5872"/>
								<polygon fill="#000000" stroke="none" points="6138,5890 6155,5859 6120,5859"/>
								<polyline fill="none" stroke="#000000" stroke-width="8" stroke-dasharray="none" points="6138,8370 6138,8494 5504,8494"/>
								<polygon fill="#000000" stroke="none" points="5487,8494 5517,8511 5517,8476"/>
								<polyline fill="none" stroke="#000000" stroke-width="8" stroke-dasharray="none" points="5084,5580 4340,5580 4340,5872"/>
								<polygon fill="#000000" stroke="none" points="4340,5890 4357,5859 4322,5859"/>
								<polyline fill="none" stroke="#000000" stroke-width="8" stroke-dasharray="none" points="4340,8246 4340,8494 5407,8494"/>
								<polygon fill="#000000" stroke="none" points="5425,8494 5394,8476 5394,8511"/>
								<g>
									<path fill="#E0E0E0" stroke="#000000" stroke-width="4" stroke-dasharray="none" d="M 5456,5363 L 5053,5580 L 5456,5797 L 5859,5580 Z"/>
									<text x="5456" y="5536" fill="#000000" font-family="Arial" font-size="32pt" text-anchor="middle" direction="ltr">
										<tspan x="5456" dy="62" unicode-bidi="embed">PhoneResolution=&quot;Yes&quot;</tspan>
									</text>
								</g>
								<g>
									<polyline fill="none" stroke="#000000" stroke-width="8" stroke-dasharray="none" points="6138,6448 6138,6523"/>
									<polygon fill="#000000" stroke="none" points="6138,6541 6155,6510 6120,6510"/>
									<polyline fill="none" stroke="#000000" stroke-width="8" stroke-dasharray="none" points="6138,6665 6138,6740"/>
									<polygon fill="#000000" stroke="none" points="6138,6758 6155,6727 6120,6727"/>
									<polyline fill="none" stroke="#000000" stroke-width="8" stroke-dasharray="none" points="6138,6882 6138,6957"/>
									<polygon fill="#000000" stroke="none" points="6138,6975 6155,6944 6120,6944"/>
									<polyline fill="none" stroke="#000000" stroke-width="8" stroke-dasharray="none" points="6138,8091 6138,8166"/>
									<polygon fill="#000000" stroke="none" points="6138,8184 6155,8153 6120,8153"/>
									<g>
										<path fill="#E0E0E0" stroke="#000000" stroke-width="4" stroke-dasharray="none" d="M 5611,5890 L 5611,6448 L 6386,6448 L 6665,6169 L 6386,5890 Z"/>
										<text x="5998" y="5908" fill="#000000" font-family="Arial" font-size="32pt" text-anchor="middle" direction="ltr">
											<tspan x="5998" dy="62" unicode-bidi="embed">&quot;Resolve or Provide Service</tspan>
											<tspan x="5998" dy="62" unicode-bidi="embed"> over phone. Add</tspan>
											<tspan x="5998" dy="62" unicode-bidi="embed"> information to Helpdesk</tspan>
											<tspan x="5998" dy="62" unicode-bidi="embed"> ticket and Fillout Order</tspan>
											<tspan x="5998" dy="62" unicode-bidi="embed"> Form. Collect payment</tspan>
											<tspan x="5998" dy="62" unicode-bidi="embed"> electronically somehow.</tspan>
											<tspan x="5998" dy="62" unicode-bidi="embed"> Customer Invoice Needs to</tspan>
											<tspan x="5998" dy="62" unicode-bidi="embed"> be sent to customer.&quot;</tspan>
										</text>
									</g>
									<g>
										<path fill="#E0E0E0" stroke="#000000" stroke-width="4" stroke-dasharray="none" d="M 5735,6541 L 5735,6665 L 6541,6665 L 6541,6603 L 6479,6541 Z"/>
										<polyline fill="none" stroke="#000000" stroke-width="4" stroke-dasharray="none" points="6479,6541 6479,6603 6541,6603"/>
										<text x="6107" y="6559" fill="#000000" font-family="Arial" font-size="32pt" text-anchor="middle" direction="ltr">
											<tspan x="6107" dy="62" unicode-bidi="embed">String ReferredServiceReqd</tspan>
										</text>
									</g>
									<g>
										<path fill="#E0E0E0" stroke="#000000" stroke-width="4" stroke-dasharray="none" d="M 5797,6758 L 5797,6882 L 6479,6882 L 6417,6820 L 6479,6758 Z"/>
										<text x="6107" y="6776" fill="#000000" font-family="Arial" font-size="32pt" text-anchor="middle" direction="ltr">
											<tspan x="6107" dy="62" unicode-bidi="embed">ReferredServiceReqd</tspan>
										</text>
									</g>
									<g>
										<polyline fill="none" stroke="#000000" stroke-width="8" stroke-dasharray="none" points="6541,7192 6727,7192 6727,7484"/>
										<polygon fill="#000000" stroke="none" points="6727,7502 6744,7471 6709,7471"/>
										<polyline fill="none" stroke="#000000" stroke-width="8" stroke-dasharray="none" points="6727,7936 6727,8060 6186,8060"/>
										<polygon fill="#000000" stroke="none" points="6169,8060 6199,8077 6199,8042"/>
										<polyline fill="none" stroke="#000000" stroke-width="8" stroke-dasharray="none" points="5735,7192 5518,7192 5518,8060 6089,8060"/>
										<polygon fill="#000000" stroke="none" points="6107,8060 6076,8042 6076,8077"/>
										<g>
											<path fill="#E0E0E0" stroke="#000000" stroke-width="4" stroke-dasharray="none" d="M 6138,6975 L 5704,7192 L 6138,7409 L 6572,7192 Z"/>
											<text x="6138" y="7148" fill="#000000" font-family="Arial" font-size="32pt" text-anchor="middle" direction="ltr">
												<tspan x="6138" dy="62" unicode-bidi="embed">ReferredServiceReqd=&quot;Yes&quot;</tspan>
											</text>
										</g>
										<g>
											<path fill="#E0E0E0" stroke="#000000" stroke-width="4" stroke-dasharray="none" d="M 6262,7502 L 6262,7936 L 6975,7936 L 7192,7719 L 6975,7502 Z"/>
											<text x="6618" y="7520" fill="#000000" font-family="Arial" font-size="32pt" text-anchor="middle" direction="ltr">
												<tspan x="6618" dy="62" unicode-bidi="embed">&quot;External Agent Contact is</tspan>
												<tspan x="6618" dy="62" unicode-bidi="embed"> required ie Plumbing</tspan>
												<tspan x="6618" dy="62" unicode-bidi="embed"> Contractor, HVAC</tspan>
												<tspan x="6618" dy="62" unicode-bidi="embed"> Contractor, Computer or</tspan>
												<tspan x="6618" dy="62" unicode-bidi="embed"> Phone Repair Service</tspan>
												<tspan x="6618" dy="62" unicode-bidi="embed"> Etc....&quot;</tspan>
											</text>
										</g>
										<g>
										</g>
										<ellipse cx="6138" cy="8060" rx="31" ry="31" fill="#E0E0E0" stroke="#000000" stroke-width="4"/>
										<text x="6665" y="7086" fill="#000000" font-family="Arial" font-size="32pt" text-anchor="middle" direction="ltr">
											<tspan x="6665" dy="62" unicode-bidi="embed">True</tspan>
										</text>
										<text x="5595" y="7086" fill="#000000" font-family="Arial" font-size="32pt" text-anchor="middle" direction="ltr">
											<tspan x="5595" dy="62" unicode-bidi="embed">False</tspan>
										</text>
									</g>
									<g>
										<path fill="#E0E0E0" stroke="#000000" stroke-width="4" stroke-dasharray="none" d="M 5735,8184 L 5735,8370 L 6448,8370 L 6541,8277 L 6448,8184 Z"/>
										<text x="6091" y="8202" fill="#000000" font-family="Arial" font-size="32pt" text-anchor="middle" direction="ltr">
											<tspan x="6091" dy="62" unicode-bidi="embed">&quot;Order Form Needs to be</tspan>
											<tspan x="6091" dy="62" unicode-bidi="embed"> entered into Database&quot;</tspan>
										</text>
									</g>
								</g>
								<g>
									<polyline fill="none" stroke="#000000" stroke-width="8" stroke-dasharray="none" points="4340,6324 4340,6399"/>
									<polygon fill="#000000" stroke="none" points="4340,6417 4357,6386 4322,6386"/>
									<polyline fill="none" stroke="#000000" stroke-width="8" stroke-dasharray="none" points="4340,6541 4340,6616"/>
									<polygon fill="#000000" stroke="none" points="4340,6634 4357,6603 4322,6603"/>
									<polyline fill="none" stroke="#000000" stroke-width="8" stroke-dasharray="none" points="4340,6758 4340,6833"/>
									<polygon fill="#000000" stroke="none" points="4340,6851 4357,6820 4322,6820"/>
									<polyline fill="none" stroke="#000000" stroke-width="8" stroke-dasharray="none" points="4340,7967 4340,8042"/>
									<polygon fill="#000000" stroke="none" points="4340,8060 4357,8029 4322,8029"/>
									<g>
										<path fill="#E0E0E0" stroke="#000000" stroke-width="4" stroke-dasharray="none" d="M 3875,5890 L 3875,6324 L 4588,6324 L 4805,6107 L 4588,5890 Z"/>
										<text x="4231" y="5908" fill="#000000" font-family="Arial" font-size="32pt" text-anchor="middle" direction="ltr">
											<tspan x="4231" dy="62" unicode-bidi="embed">&quot;Travel to customer</tspan>
											<tspan x="4231" dy="62" unicode-bidi="embed"> premises resolve or</tspan>
											<tspan x="4231" dy="62" unicode-bidi="embed"> provide service. Fill out</tspan>
											<tspan x="4231" dy="62" unicode-bidi="embed"> paper order form. Collect</tspan>
											<tspan x="4231" dy="62" unicode-bidi="embed"> payment. Carbon copy is</tspan>
											<tspan x="4231" dy="62" unicode-bidi="embed"> receipt.&quot;</tspan>
										</text>
									</g>
									<g>
										<path fill="#E0E0E0" stroke="#000000" stroke-width="4" stroke-dasharray="none" d="M 3937,6417 L 3937,6541 L 4743,6541 L 4743,6479 L 4681,6417 Z"/>
										<polyline fill="none" stroke="#000000" stroke-width="4" stroke-dasharray="none" points="4681,6417 4681,6479 4743,6479"/>
										<text x="4309" y="6435" fill="#000000" font-family="Arial" font-size="32pt" text-anchor="middle" direction="ltr">
											<tspan x="4309" dy="62" unicode-bidi="embed">String ReferredServiceReqd</tspan>
										</text>
									</g>
									<g>
										<path fill="#E0E0E0" stroke="#000000" stroke-width="4" stroke-dasharray="none" d="M 3999,6634 L 3999,6758 L 4681,6758 L 4619,6696 L 4681,6634 Z"/>
										<text x="4309" y="6652" fill="#000000" font-family="Arial" font-size="32pt" text-anchor="middle" direction="ltr">
											<tspan x="4309" dy="62" unicode-bidi="embed">ReferredServiceReqd</tspan>
										</text>
									</g>
									<g>
										<polyline fill="none" stroke="#000000" stroke-width="8" stroke-dasharray="none" points="4743,7068 4929,7068 4929,7360"/>
										<polygon fill="#000000" stroke="none" points="4929,7378 4946,7347 4911,7347"/>
										<polyline fill="none" stroke="#000000" stroke-width="8" stroke-dasharray="none" points="4929,7812 4929,7936 4388,7936"/>
										<polygon fill="#000000" stroke="none" points="4371,7936 4401,7953 4401,7918"/>
										<polyline fill="none" stroke="#000000" stroke-width="8" stroke-dasharray="none" points="3937,7068 3720,7068 3720,7936 4291,7936"/>
										<polygon fill="#000000" stroke="none" points="4309,7936 4278,7918 4278,7953"/>
										<g>
											<path fill="#E0E0E0" stroke="#000000" stroke-width="4" stroke-dasharray="none" d="M 4340,6851 L 3906,7068 L 4340,7285 L 4774,7068 Z"/>
											<text x="4340" y="7024" fill="#000000" font-family="Arial" font-size="32pt" text-anchor="middle" direction="ltr">
												<tspan x="4340" dy="62" unicode-bidi="embed">ReferredServiceReqd=&quot;Yes&quot;</tspan>
											</text>
										</g>
										<g>
											<path fill="#E0E0E0" stroke="#000000" stroke-width="4" stroke-dasharray="none" d="M 4464,7378 L 4464,7812 L 5177,7812 L 5394,7595 L 5177,7378 Z"/>
											<text x="4820" y="7396" fill="#000000" font-family="Arial" font-size="32pt" text-anchor="middle" direction="ltr">
												<tspan x="4820" dy="62" unicode-bidi="embed">&quot;External Agent Contact is</tspan>
												<tspan x="4820" dy="62" unicode-bidi="embed"> required ie Plumbing</tspan>
												<tspan x="4820" dy="62" unicode-bidi="embed"> Contractor, HVAC</tspan>
												<tspan x="4820" dy="62" unicode-bidi="embed"> Contractor, Computer or</tspan>
												<tspan x="4820" dy="62" unicode-bidi="embed"> Phone Repair Service</tspan>
												<tspan x="4820" dy="62" unicode-bidi="embed"> Etc....&quot;</tspan>
											</text>
										</g>
										<g>
										</g>
										<ellipse cx="4340" cy="7936" rx="31" ry="31" fill="#E0E0E0" stroke="#000000" stroke-width="4"/>
										<text x="4867" y="6962" fill="#000000" font-family="Arial" font-size="32pt" text-anchor="middle" direction="ltr">
											<tspan x="4867" dy="62" unicode-bidi="embed">True</tspan>
										</text>
										<text x="3797" y="6962" fill="#000000" font-family="Arial" font-size="32pt" text-anchor="middle" direction="ltr">
											<tspan x="3797" dy="62" unicode-bidi="embed">False</tspan>
										</text>
									</g>
									<g>
										<path fill="#E0E0E0" stroke="#000000" stroke-width="4" stroke-dasharray="none" d="M 3937,8060 L 3937,8246 L 4650,8246 L 4743,8153 L 4650,8060 Z"/>
										<text x="4293" y="8078" fill="#000000" font-family="Arial" font-size="32pt" text-anchor="middle" direction="ltr">
											<tspan x="4293" dy="62" unicode-bidi="embed">&quot;Order Form Needs to be</tspan>
											<tspan x="4293" dy="62" unicode-bidi="embed"> entered into Database&quot;</tspan>
										</text>
									</g>
								</g>
								<ellipse cx="5456" cy="8494" rx="31" ry="31" fill="#E0E0E0" stroke="#000000" stroke-width="4"/>
								<text x="5952" y="5474" fill="#000000" font-family="Arial" font-size="32pt" text-anchor="middle" direction="ltr">
									<tspan x="5952" dy="62" unicode-bidi="embed">True</tspan>
								</text>
								<text x="4944" y="5474" fill="#000000" font-family="Arial" font-size="32pt" text-anchor="middle" direction="ltr">
									<tspan x="4944" dy="62" unicode-bidi="embed">False</tspan>
								</text>
							</g>
						</g>
						<ellipse cx="7254" cy="8649" rx="31" ry="31" fill="#E0E0E0" stroke="#000000" stroke-width="4"/>
						<text x="7750" y="3180" fill="#000000" font-family="Arial" font-size="32pt" text-anchor="middle" direction="ltr">
							<tspan x="7750" dy="62" unicode-bidi="embed">True</tspan>
						</text>
						<text x="6742" y="3180" fill="#000000" font-family="Arial" font-size="32pt" text-anchor="middle" direction="ltr">
							<tspan x="6742" dy="62" unicode-bidi="embed">False</tspan>
						</text>
					</g>
				</g>
				<g>
					<polyline fill="none" stroke="#000000" stroke-width="8" stroke-dasharray="none" points="1860,2604 1860,2679"/>
					<polygon fill="#000000" stroke="none" points="1860,2697 1877,2666 1842,2666"/>
					<polyline fill="none" stroke="#000000" stroke-width="8" stroke-dasharray="none" points="1860,2945 1860,3020"/>
					<polygon fill="#000000" stroke="none" points="1860,3038 1877,3007 1842,3007"/>
					<polyline fill="none" stroke="#000000" stroke-width="8" stroke-dasharray="none" points="1860,3286 1860,3361"/>
					<polygon fill="#000000" stroke="none" points="1860,3379 1877,3348 1842,3348"/>
					<polyline fill="none" stroke="#000000" stroke-width="8" stroke-dasharray="none" points="1860,3937 1860,4012"/>
					<polygon fill="#000000" stroke="none" points="1860,4030 1877,3999 1842,3999"/>
					<polyline fill="none" stroke="#000000" stroke-width="8" stroke-dasharray="none" points="1860,4154 1860,4229"/>
					<polygon fill="#000000" stroke="none" points="1860,4247 1877,4216 1842,4216"/>
					<polyline fill="none" stroke="#000000" stroke-width="8" stroke-dasharray="none" points="1860,4371 1860,4446"/>
					<polygon fill="#000000" stroke="none" points="1860,4464 1877,4433 1842,4433"/>
					<g>
						<path fill="#E0E0E0" stroke="#000000" stroke-width="4" stroke-dasharray="none" d="M 1426,2356 L 1426,2604 L 2170,2604 L 2294,2480 L 2170,2356 Z"/>
						<text x="1798" y="2374" fill="#000000" font-family="Arial" font-size="32pt" text-anchor="middle" direction="ltr">
							<tspan x="1798" dy="62" unicode-bidi="embed">&quot;Enter Information</tspan>
							<tspan x="1798" dy="62" unicode-bidi="embed"> Regarding New Customer</tspan>
							<tspan x="1798" dy="62" unicode-bidi="embed"> into Database&quot; &#8230;</tspan>
						</text>
					</g>
					<g>
						<path fill="#E0E0E0" stroke="#000000" stroke-width="4" stroke-dasharray="none" d="M 1426,2697 L 1426,2945 L 2170,2945 L 2294,2821 L 2170,2697 Z"/>
						<text x="1798" y="2715" fill="#000000" font-family="Arial" font-size="32pt" text-anchor="middle" direction="ltr">
							<tspan x="1798" dy="62" unicode-bidi="embed">&quot;Get information regarding</tspan>
							<tspan x="1798" dy="62" unicode-bidi="embed"> requested Service and start</tspan>
							<tspan x="1798" dy="62" unicode-bidi="embed"> a Helpdesk ticket&quot;</tspan>
						</text>
					</g>
					<g>
						<path fill="#E0E0E0" stroke="#000000" stroke-width="4" stroke-dasharray="none" d="M 1426,3038 L 1426,3286 L 2170,3286 L 2294,3162 L 2170,3038 Z"/>
						<text x="1798" y="3056" fill="#000000" font-family="Arial" font-size="32pt" text-anchor="middle" direction="ltr">
							<tspan x="1798" dy="62" unicode-bidi="embed">&quot;Contact Available Agent. </tspan>
							<tspan x="1798" dy="62" unicode-bidi="embed"> Available Agent will contact</tspan>
							<tspan x="1798" dy="62" unicode-bidi="embed"> Customer&quot;</tspan>
						</text>
					</g>
					<g>
						<path fill="#E0E0E0" stroke="#000000" stroke-width="4" stroke-dasharray="none" d="M 1333,3379 L 1333,3937 L 2108,3937 L 2387,3658 L 2108,3379 Z"/>
						<text x="1720" y="3397" fill="#000000" font-family="Arial" font-size="32pt" text-anchor="middle" direction="ltr">
							<tspan x="1720" dy="62" unicode-bidi="embed">&quot;Agent Contacts Customer</tspan>
							<tspan x="1720" dy="62" unicode-bidi="embed"> and determines if the</tspan>
							<tspan x="1720" dy="62" unicode-bidi="embed"> problem/service can be</tspan>
							<tspan x="1720" dy="62" unicode-bidi="embed"> completed on the phone or</tspan>
							<tspan x="1720" dy="62" unicode-bidi="embed"> will require an on-premise</tspan>
							<tspan x="1720" dy="62" unicode-bidi="embed"> visit or might even</tspan>
							<tspan x="1720" dy="62" unicode-bidi="embed"> determine requires a</tspan>
							<tspan x="1720" dy="62" unicode-bidi="embed"> referred service.&quot;</tspan>
						</text>
					</g>
					<g>
						<path fill="#E0E0E0" stroke="#000000" stroke-width="4" stroke-dasharray="none" d="M 1488,4030 L 1488,4154 L 2232,4154 L 2232,4092 L 2170,4030 Z"/>
						<polyline fill="none" stroke="#000000" stroke-width="4" stroke-dasharray="none" points="2170,4030 2170,4092 2232,4092"/>
						<text x="1829" y="4048" fill="#000000" font-family="Arial" font-size="32pt" text-anchor="middle" direction="ltr">
							<tspan x="1829" dy="62" unicode-bidi="embed">String PhoneResolution</tspan>
						</text>
					</g>
					<g>
						<path fill="#E0E0E0" stroke="#000000" stroke-width="4" stroke-dasharray="none" d="M 1581,4247 L 1581,4371 L 2139,4371 L 2077,4309 L 2139,4247 Z"/>
						<text x="1829" y="4265" fill="#000000" font-family="Arial" font-size="32pt" text-anchor="middle" direction="ltr">
							<tspan x="1829" dy="62" unicode-bidi="embed">PhoneResolution</tspan>
						</text>
					</g>
					<g>
						<polyline fill="none" stroke="#000000" stroke-width="8" stroke-dasharray="none" points="2232,4681 2542,4681 2542,4973"/>
						<polygon fill="#000000" stroke="none" points="2542,4991 2559,4960 2524,4960"/>
						<polyline fill="none" stroke="#000000" stroke-width="8" stroke-dasharray="none" points="2542,7471 2542,7595 1908,7595"/>
						<polygon fill="#000000" stroke="none" points="1891,7595 1921,7612 1921,7577"/>
						<polyline fill="none" stroke="#000000" stroke-width="8" stroke-dasharray="none" points="1488,4681 744,4681 744,4973"/>
						<polygon fill="#000000" stroke="none" points="744,4991 761,4960 726,4960"/>
						<polyline fill="none" stroke="#000000" stroke-width="8" stroke-dasharray="none" points="744,7347 744,7595 1811,7595"/>
						<polygon fill="#000000" stroke="none" points="1829,7595 1798,7577 1798,7612"/>
						<g>
							<path fill="#E0E0E0" stroke="#000000" stroke-width="4" stroke-dasharray="none" d="M 1860,4464 L 1457,4681 L 1860,4898 L 2263,4681 Z"/>
							<text x="1860" y="4637" fill="#000000" font-family="Arial" font-size="32pt" text-anchor="middle" direction="ltr">
								<tspan x="1860" dy="62" unicode-bidi="embed">PhoneResolution=&quot;Yes&quot;</tspan>
							</text>
						</g>
						<g>
							<polyline fill="none" stroke="#000000" stroke-width="8" stroke-dasharray="none" points="2542,5549 2542,5624"/>
							<polygon fill="#000000" stroke="none" points="2542,5642 2559,5611 2524,5611"/>
							<polyline fill="none" stroke="#000000" stroke-width="8" stroke-dasharray="none" points="2542,5766 2542,5841"/>
							<polygon fill="#000000" stroke="none" points="2542,5859 2559,5828 2524,5828"/>
							<polyline fill="none" stroke="#000000" stroke-width="8" stroke-dasharray="none" points="2542,5983 2542,6058"/>
							<polygon fill="#000000" stroke="none" points="2542,6076 2559,6045 2524,6045"/>
							<polyline fill="none" stroke="#000000" stroke-width="8" stroke-dasharray="none" points="2542,7192 2542,7267"/>
							<polygon fill="#000000" stroke="none" points="2542,7285 2559,7254 2524,7254"/>
							<g>
								<path fill="#E0E0E0" stroke="#000000" stroke-width="4" stroke-dasharray="none" d="M 2015,4991 L 2015,5549 L 2790,5549 L 3069,5270 L 2790,4991 Z"/>
								<text x="2402" y="5009" fill="#000000" font-family="Arial" font-size="32pt" text-anchor="middle" direction="ltr">
									<tspan x="2402" dy="62" unicode-bidi="embed">&quot;Resolve or Provide Service</tspan>
									<tspan x="2402" dy="62" unicode-bidi="embed"> over phone. Add</tspan>
									<tspan x="2402" dy="62" unicode-bidi="embed"> information to Helpdesk</tspan>
									<tspan x="2402" dy="62" unicode-bidi="embed"> ticket and Fillout Order</tspan>
									<tspan x="2402" dy="62" unicode-bidi="embed"> Form. Collect payment</tspan>
									<tspan x="2402" dy="62" unicode-bidi="embed"> electronically somehow.</tspan>
									<tspan x="2402" dy="62" unicode-bidi="embed"> Customer Invoice Needs to</tspan>
									<tspan x="2402" dy="62" unicode-bidi="embed"> be sent to customer.&quot; &#8230;</tspan>
								</text>
							</g>
							<g>
								<path fill="#E0E0E0" stroke="#000000" stroke-width="4" stroke-dasharray="none" d="M 2139,5642 L 2139,5766 L 2945,5766 L 2945,5704 L 2883,5642 Z"/>
								<polyline fill="none" stroke="#000000" stroke-width="4" stroke-dasharray="none" points="2883,5642 2883,5704 2945,5704"/>
								<text x="2511" y="5660" fill="#000000" font-family="Arial" font-size="32pt" text-anchor="middle" direction="ltr">
									<tspan x="2511" dy="62" unicode-bidi="embed">String ReferredServiceReqd</tspan>
								</text>
							</g>
							<g>
								<path fill="#E0E0E0" stroke="#000000" stroke-width="4" stroke-dasharray="none" d="M 2201,5859 L 2201,5983 L 2883,5983 L 2821,5921 L 2883,5859 Z"/>
								<text x="2511" y="5877" fill="#000000" font-family="Arial" font-size="32pt" text-anchor="middle" direction="ltr">
									<tspan x="2511" dy="62" unicode-bidi="embed">ReferredServiceReqd</tspan>
								</text>
							</g>
							<g>
								<polyline fill="none" stroke="#000000" stroke-width="8" stroke-dasharray="none" points="2945,6293 3131,6293 3131,6585"/>
								<polygon fill="#000000" stroke="none" points="3131,6603 3148,6572 3113,6572"/>
								<polyline fill="none" stroke="#000000" stroke-width="8" stroke-dasharray="none" points="3131,7037 3131,7161 2590,7161"/>
								<polygon fill="#000000" stroke="none" points="2573,7161 2603,7178 2603,7143"/>
								<polyline fill="none" stroke="#000000" stroke-width="8" stroke-dasharray="none" points="2139,6293 1922,6293 1922,7161 2493,7161"/>
								<polygon fill="#000000" stroke="none" points="2511,7161 2480,7143 2480,7178"/>
								<g>
									<path fill="#E0E0E0" stroke="#000000" stroke-width="4" stroke-dasharray="none" d="M 2542,6076 L 2108,6293 L 2542,6510 L 2976,6293 Z"/>
									<text x="2542" y="6249" fill="#000000" font-family="Arial" font-size="32pt" text-anchor="middle" direction="ltr">
										<tspan x="2542" dy="62" unicode-bidi="embed">ReferredServiceReqd=&quot;Yes&quot;</tspan>
									</text>
								</g>
								<g>
									<path fill="#E0E0E0" stroke="#000000" stroke-width="4" stroke-dasharray="none" d="M 2666,6603 L 2666,7037 L 3379,7037 L 3596,6820 L 3379,6603 Z"/>
									<text x="3022" y="6621" fill="#000000" font-family="Arial" font-size="32pt" text-anchor="middle" direction="ltr">
										<tspan x="3022" dy="62" unicode-bidi="embed">&quot;External Agent Contact is</tspan>
										<tspan x="3022" dy="62" unicode-bidi="embed"> required ie Plumbing</tspan>
										<tspan x="3022" dy="62" unicode-bidi="embed"> Contractor, HVAC</tspan>
										<tspan x="3022" dy="62" unicode-bidi="embed"> Contractor, Computer or</tspan>
										<tspan x="3022" dy="62" unicode-bidi="embed"> Phone Repair Service</tspan>
										<tspan x="3022" dy="62" unicode-bidi="embed"> Etc....&quot;</tspan>
									</text>
								</g>
								<g>
								</g>
								<ellipse cx="2542" cy="7161" rx="31" ry="31" fill="#E0E0E0" stroke="#000000" stroke-width="4"/>
								<text x="3069" y="6187" fill="#000000" font-family="Arial" font-size="32pt" text-anchor="middle" direction="ltr">
									<tspan x="3069" dy="62" unicode-bidi="embed">True</tspan>
								</text>
								<text x="1999" y="6187" fill="#000000" font-family="Arial" font-size="32pt" text-anchor="middle" direction="ltr">
									<tspan x="1999" dy="62" unicode-bidi="embed">False</tspan>
								</text>
							</g>
							<g>
								<path fill="#E0E0E0" stroke="#000000" stroke-width="4" stroke-dasharray="none" d="M 2139,7285 L 2139,7471 L 2852,7471 L 2945,7378 L 2852,7285 Z"/>
								<text x="2495" y="7303" fill="#000000" font-family="Arial" font-size="32pt" text-anchor="middle" direction="ltr">
									<tspan x="2495" dy="62" unicode-bidi="embed">&quot;Order Form Needs to be</tspan>
									<tspan x="2495" dy="62" unicode-bidi="embed"> entered into Database&quot;</tspan>
								</text>
							</g>
						</g>
						<g>
							<polyline fill="none" stroke="#000000" stroke-width="8" stroke-dasharray="none" points="744,5425 744,5500"/>
							<polygon fill="#000000" stroke="none" points="744,5518 761,5487 726,5487"/>
							<polyline fill="none" stroke="#000000" stroke-width="8" stroke-dasharray="none" points="744,5642 744,5717"/>
							<polygon fill="#000000" stroke="none" points="744,5735 761,5704 726,5704"/>
							<polyline fill="none" stroke="#000000" stroke-width="8" stroke-dasharray="none" points="744,5859 744,5934"/>
							<polygon fill="#000000" stroke="none" points="744,5952 761,5921 726,5921"/>
							<polyline fill="none" stroke="#000000" stroke-width="8" stroke-dasharray="none" points="744,7068 744,7143"/>
							<polygon fill="#000000" stroke="none" points="744,7161 761,7130 726,7130"/>
							<g>
								<path fill="#E0E0E0" stroke="#000000" stroke-width="4" stroke-dasharray="none" d="M 279,4991 L 279,5425 L 992,5425 L 1209,5208 L 992,4991 Z"/>
								<text x="635" y="5009" fill="#000000" font-family="Arial" font-size="32pt" text-anchor="middle" direction="ltr">
									<tspan x="635" dy="62" unicode-bidi="embed">&quot;Travel to customer</tspan>
									<tspan x="635" dy="62" unicode-bidi="embed"> premises resolve or</tspan>
									<tspan x="635" dy="62" unicode-bidi="embed"> provide service. Fill out</tspan>
									<tspan x="635" dy="62" unicode-bidi="embed"> paper order form. Collect</tspan>
									<tspan x="635" dy="62" unicode-bidi="embed"> payment. Carbon copy is</tspan>
									<tspan x="635" dy="62" unicode-bidi="embed"> receipt.&quot;</tspan>
								</text>
							</g>
							<g>
								<path fill="#E0E0E0" stroke="#000000" stroke-width="4" stroke-dasharray="none" d="M 341,5518 L 341,5642 L 1147,5642 L 1147,5580 L 1085,5518 Z"/>
								<polyline fill="none" stroke="#000000" stroke-width="4" stroke-dasharray="none" points="1085,5518 1085,5580 1147,5580"/>
								<text x="713" y="5536" fill="#000000" font-family="Arial" font-size="32pt" text-anchor="middle" direction="ltr">
									<tspan x="713" dy="62" unicode-bidi="embed">String ReferredServiceReqd</tspan>
								</text>
							</g>
							<g>
								<path fill="#E0E0E0" stroke="#000000" stroke-width="4" stroke-dasharray="none" d="M 403,5735 L 403,5859 L 1085,5859 L 1023,5797 L 1085,5735 Z"/>
								<text x="713" y="5753" fill="#000000" font-family="Arial" font-size="32pt" text-anchor="middle" direction="ltr">
									<tspan x="713" dy="62" unicode-bidi="embed">ReferredServiceReqd</tspan>
								</text>
							</g>
							<g>
								<polyline fill="none" stroke="#000000" stroke-width="8" stroke-dasharray="none" points="1147,6169 1333,6169 1333,6461"/>
								<polygon fill="#000000" stroke="none" points="1333,6479 1350,6448 1315,6448"/>
								<polyline fill="none" stroke="#000000" stroke-width="8" stroke-dasharray="none" points="1333,6913 1333,7037 792,7037"/>
								<polygon fill="#000000" stroke="none" points="775,7037 805,7054 805,7019"/>
								<polyline fill="none" stroke="#000000" stroke-width="8" stroke-dasharray="none" points="341,6169 124,6169 124,7037 695,7037"/>
								<polygon fill="#000000" stroke="none" points="713,7037 682,7019 682,7054"/>
								<g>
									<path fill="#E0E0E0" stroke="#000000" stroke-width="4" stroke-dasharray="none" d="M 744,5952 L 310,6169 L 744,6386 L 1178,6169 Z"/>
									<text x="744" y="6125" fill="#000000" font-family="Arial" font-size="32pt" text-anchor="middle" direction="ltr">
										<tspan x="744" dy="62" unicode-bidi="embed">ReferredServiceReqd=&quot;Yes&quot;</tspan>
									</text>
								</g>
								<g>
									<path fill="#E0E0E0" stroke="#000000" stroke-width="4" stroke-dasharray="none" d="M 868,6479 L 868,6913 L 1581,6913 L 1798,6696 L 1581,6479 Z"/>
									<text x="1224" y="6497" fill="#000000" font-family="Arial" font-size="32pt" text-anchor="middle" direction="ltr">
										<tspan x="1224" dy="62" unicode-bidi="embed">&quot;External Agent Contact is</tspan>
										<tspan x="1224" dy="62" unicode-bidi="embed"> required ie Plumbing</tspan>
										<tspan x="1224" dy="62" unicode-bidi="embed"> Contractor, HVAC</tspan>
										<tspan x="1224" dy="62" unicode-bidi="embed"> Contractor, Computer or</tspan>
										<tspan x="1224" dy="62" unicode-bidi="embed"> Phone Repair Service</tspan>
										<tspan x="1224" dy="62" unicode-bidi="embed"> Etc....&quot;</tspan>
									</text>
								</g>
								<g>
								</g>
								<ellipse cx="744" cy="7037" rx="31" ry="31" fill="#E0E0E0" stroke="#000000" stroke-width="4"/>
								<text x="1271" y="6063" fill="#000000" font-family="Arial" font-size="32pt" text-anchor="middle" direction="ltr">
									<tspan x="1271" dy="62" unicode-bidi="embed">True</tspan>
								</text>
								<text x="201" y="6063" fill="#000000" font-family="Arial" font-size="32pt" text-anchor="middle" direction="ltr">
									<tspan x="201" dy="62" unicode-bidi="embed">False</tspan>
								</text>
							</g>
							<g>
								<path fill="#E0E0E0" stroke="#000000" stroke-width="4" stroke-dasharray="none" d="M 341,7161 L 341,7347 L 1054,7347 L 1147,7254 L 1054,7161 Z"/>
								<text x="697" y="7179" fill="#000000" font-family="Arial" font-size="32pt" text-anchor="middle" direction="ltr">
									<tspan x="697" dy="62" unicode-bidi="embed">&quot;Order Form Needs to be</tspan>
									<tspan x="697" dy="62" unicode-bidi="embed"> entered into Database&quot;</tspan>
								</text>
							</g>
						</g>
						<ellipse cx="1860" cy="7595" rx="31" ry="31" fill="#E0E0E0" stroke="#000000" stroke-width="4"/>
						<text x="2356" y="4575" fill="#000000" font-family="Arial" font-size="32pt" text-anchor="middle" direction="ltr">
							<tspan x="2356" dy="62" unicode-bidi="embed">True</tspan>
						</text>
						<text x="1348" y="4575" fill="#000000" font-family="Arial" font-size="32pt" text-anchor="middle" direction="ltr">
							<tspan x="1348" dy="62" unicode-bidi="embed">False</tspan>
						</text>
					</g>
				</g>
				<ellipse cx="3658" cy="8804" rx="31" ry="31" fill="#E0E0E0" stroke="#000000" stroke-width="4"/>
				<text x="4154" y="1940" fill="#000000" font-family="Arial" font-size="32pt" text-anchor="middle" direction="ltr">
					<tspan x="4154" dy="62" unicode-bidi="embed">True</tspan>
				</text>
				<text x="3146" y="1940" fill="#000000" font-family="Arial" font-size="32pt" text-anchor="middle" direction="ltr">
					<tspan x="3146" dy="62" unicode-bidi="embed">False</tspan>
				</text>
			</g>
		</g>
	</g>
</svg>
